<?xml version="1.0" encoding="UTF-8"?>
<!DOCTYPE svg PUBLIC "-//W3C//DTD SVG 1.1//EN" "http://www.w3.org/Graphics/SVG/1.1/DTD/svg11.dtd">
<!-- Creator: CorelDRAW 2020 (64-Bit) -->
<svg xmlns="http://www.w3.org/2000/svg" xml:space="preserve" version="1.1" style="shape-rendering:geometricPrecision; text-rendering:geometricPrecision; image-rendering:optimizeQuality; fill-rule:evenodd; clip-rule:evenodd"
viewBox="1000 3000 19500 5800"
 xmlns:xlink="http://www.w3.org/1999/xlink"
 xmlns:xodm="http://www.corel.com/coreldraw/odm/2003">
 <defs>
  <style type="text/css">
   <![CDATA[
    .fil4 {fill:#FEFEFE}
    .fil3 {fill:#F58634}
    .fil2 {fill:#3E4095}
    .fil0 {fill:#3E4095;fill-rule:nonzero}
    .fil1 {fill:#F7831C;fill-rule:nonzero}
   ]]>
  </style>
 </defs>
 <g id="Layer_x0020_1">
  <metadata id="CorelCorpID_0Corel-Layer"/>
  <path class="fil0" d="M6742.07 5215.96c0,199.85 60.23,364.66 180.14,493.33 120.46,128.67 273.77,193.27 459.93,193.27 186.71,0 340.56,-64.6 461.02,-193.27 119.91,-128.67 180.14,-293.48 180.14,-493.33 0,-200.94 -60.23,-366.3 -180.14,-495.52 -120.46,-129.76 -274.31,-194.37 -461.02,-194.37 -186.16,0 -339.47,64.61 -459.93,194.37 -119.91,129.22 -180.14,294.58 -180.14,495.52zm-578.19 0c0,-167 29.57,-320.85 88.15,-462.66 59.14,-141.81 146.74,-268.29 263.37,-379.44 113.34,-106.77 242.01,-186.71 386.01,-238.73 144,-52.56 303.88,-78.84 480.73,-78.84 178.49,0 340.02,26.28 484.56,79.39 144.55,53.11 273.22,132.5 386.56,238.18 115.53,111.15 203.14,237.63 262.27,379.44 59.68,141.81 89.25,295.66 89.25,462.66 0,165.9 -29.57,319.21 -89.25,461.02 -59.13,141.81 -146.74,267.2 -262.27,376.16 -114.43,106.76 -244.2,187.25 -389.29,241.46 -144.55,54.2 -305.53,81.03 -481.83,81.03 -175.76,0 -335.09,-26.83 -479.09,-79.94 -144,-53.66 -273.22,-134.69 -387.65,-242.55 -115.53,-108.96 -203.14,-234.35 -262.27,-376.16 -59.68,-141.81 -89.25,-295.12 -89.25,-461.02z"/>
  <path id="1" class="fil0" d="M9903.66 5012.28c104.03,0 181.23,-21.9 232.15,-65.16 50.92,-43.25 76.11,-108.96 76.11,-197.66 0,-84.32 -26.28,-148.93 -79.39,-193.28 -53.11,-44.35 -129.22,-66.25 -228.87,-66.25l-269.93 0 0 522.35 269.93 0zm-831.7 1323.93l0 -2243.78 828.41 0c304.43,0 529.47,53.11 675.11,158.78 145.1,105.67 217.92,269.93 217.92,492.23 0,123.74 -32.31,229.96 -96.37,318.12 -64.06,88.15 -162.07,162.61 -294.57,223.39 55.85,20.26 105.67,54.2 150.02,101.84 44.35,47.64 82.68,107.86 116.08,180.69l358.09 768.73 -633.5 0 -285.81 -646.63c-45.99,-102.94 -98.55,-173.57 -157.14,-211.9 -59.13,-38.87 -142.36,-58.04 -250.77,-58.04 -8.21,0 -19.71,0.55 -33.4,1.64 -14.24,1.1 -24.64,1.65 -32.3,1.65l0 913.28 -561.77 0z"/>
  <path id="2" class="fil0" d="M11982.77 5514.91l662.51 0 -314.28 -854.15 -348.23 854.15zm-939.56 821.3l978.44 -2243.78 647.73 0 873.86 2243.78 -595.17 0 -160.43 -436.93 -966.94 0 -179.59 436.93 -597.9 0z"/>
  <polygon id="3" class="fil0" points="14378.9,4926.32 14378.9,6336.21 13823.71,6336.21 13823.71,4092.43 14315.94,4092.43 15518.87,5430.05 15518.87,4092.43 16074.06,4092.43 16074.06,6336.21 15634.4,6336.21 "/>
  <polygon id="4" class="fil0" points="16655.67,6336.21 16655.67,4092.43 17233.87,4092.43 17233.87,6336.21 "/>
  <path id="5" class="fil0" d="M18465.95 5514.91l662.51 0 -314.28 -854.15 -348.23 854.15zm-939.56 821.3l978.44 -2243.78 647.73 0 873.86 2243.78 -595.17 0 -160.43 -436.93 -966.94 0 -179.59 436.93 -597.9 0z"/>
  <path id="6" class="fil1" d="M6183.34 8437.55l0 -346.32c117.6,73.07 216.55,123.69 297.23,152.99 80.68,28.92 158.7,43.39 234.82,43.39 76.49,0 134.34,-11.8 173.92,-35.02 39.2,-23.59 58.99,-58.22 58.99,-104.27 0,-37.3 -12.18,-67.37 -36.92,-89.82 -24.35,-22.83 -81.44,-49.86 -171.26,-81.06 -222.25,-78.02 -375.24,-157.94 -458.97,-239.38 -83.34,-81.45 -125.21,-185.34 -125.21,-311.7 0,-133.2 54.42,-241.28 163.27,-324.63 108.84,-83.34 250.42,-124.82 425.1,-124.82 88.29,0 177.35,10.65 266.4,32.34 89.06,21.7 177.35,53.29 264.12,94.77l0 320.44c-104.66,-52.9 -198.66,-92.1 -282,-117.22 -82.97,-25.49 -158.7,-38.05 -227.21,-38.05 -74.21,0 -130.91,10.65 -169.73,32.35 -39.2,21.69 -58.61,52.52 -58.61,92.48 0,32.73 17.5,63.55 52.52,92.1 34.63,28.92 87.53,55.94 157.94,82.2 14.84,6.09 37.67,14.46 68.12,25.5 148.8,55.18 255.36,102.37 320.06,141.57 67.74,41.48 118.74,95.15 153.37,160.6 34.64,65.46 51.76,141.96 51.76,229.49 0,144.24 -54.42,257.27 -163.26,339.85 -109.23,82.59 -260.32,123.69 -453.65,123.69 -96.67,0 -189.91,-12.56 -280.48,-37.68 -90.2,-25.49 -176.97,-63.17 -260.32,-113.79z"/>
  <path id="7" class="fil1" d="M8026.47 7990.76l460.49 0 -218.45 -593.7 -242.04 593.7zm-653.07 570.86l680.09 -1559.6 450.22 0 607.4 1559.6 -413.69 0 -111.51 -303.7 -672.09 0 -124.83 303.7 -415.59 0z"/>
  <polygon id="8" class="fil1" points="9230.23,8561.62 9230.23,7002.02 9620.7,7002.02 9620.7,7696.19 10150.46,7002.02 10588.88,7002.02 10036.29,7722.83 10725.89,8561.62 10218.96,8561.62 9620.7,7828.63 9620.7,8561.62 "/>
  <polygon id="9" class="fil1" points="10807.71,8561.62 10807.71,7002.02 11851.25,7002.02 11851.25,7289.74 11198.18,7289.74 11198.18,7607.14 11821.56,7607.14 11821.56,7897.14 11198.18,7897.14 11198.18,8269.34 11869.52,8269.34 11869.52,8561.62 "/>
  <polygon id="10" class="fil1" points="12130.21,8561.62 12130.21,7002.02 12520.68,7002.02 12520.68,7696.19 13050.44,7002.02 13488.86,7002.02 12936.27,7722.83 13625.87,8561.62 13118.94,8561.62 12520.68,7828.63 12520.68,8561.62 "/>
  <path id="11" class="fil1" d="M14122.14 7990.76l460.49 0 -218.45 -593.7 -242.04 593.7zm-653.07 570.86l680.09 -1559.6 450.22 0 607.4 1559.6 -413.69 0 -111.51 -303.7 -672.09 0 -124.83 303.7 -415.59 0z"/>
  <polygon id="12" class="fil1" points="15314.48,8561.62 15314.48,7002.02 15658.9,7002.02 16159.36,7629.97 16662.1,7002.02 17006.52,7002.02 17006.52,8561.62 16622.9,8561.62 16622.9,7596.48 16159.36,8166.58 15700.38,7596.48 15700.38,8561.62 "/>
  <polygon id="13" class="fil1" points="17312.5,8561.62 17312.5,7002.02 18356.04,7002.02 18356.04,7289.74 17702.97,7289.74 17702.97,7607.14 18326.35,7607.14 18326.35,7897.14 17702.97,7897.14 17702.97,8269.34 18374.31,8269.34 18374.31,8561.62 "/>
  <path id="14" class="fil1" d="M19210.81 7641.39c72.31,0 125.97,-15.22 161.36,-45.29 35.4,-30.06 52.9,-75.73 52.9,-137.39 0,-58.6 -18.27,-103.51 -55.18,-134.34 -36.92,-30.83 -89.82,-46.05 -159.08,-46.05l-187.63 0 0 363.07 187.63 0zm-578.1 920.23l0 -1559.6 575.81 0c211.6,0 368.02,36.92 469.25,110.37 100.86,73.45 151.47,187.62 151.47,342.14 0,86.01 -22.45,159.84 -66.98,221.11 -44.53,61.27 -112.65,113.03 -204.75,155.28 38.82,14.08 73.45,37.67 104.28,70.78 30.83,33.11 57.47,74.98 80.68,125.59l248.9 534.33 -440.33 0 -198.66 -449.46c-31.97,-71.55 -68.5,-120.64 -109.22,-147.28 -41.1,-27.02 -98.95,-40.34 -174.31,-40.34 -5.7,0 -13.7,0.38 -23.21,1.14 -9.9,0.76 -17.13,1.14 -22.46,1.14l0 634.8 -390.47 0z"/>
  <g id="_25585366096">
   <path class="fil2" d="M1110.12 6373.62l0 40.14c0.62,14.65 1.51,29.01 2.86,42.92l1.29 37.28 7.79 69.59c2.47,32.57 5.39,65.75 11.35,106.31 1.59,10.75 3.22,21.48 4.93,32.15 6.12,45.28 12.3,78.86 22.99,125.04 12.58,59.99 27.28,119.07 44.31,177.87l2.92 11.6c12.02,47.49 28.61,93.39 45.8,139.23 20.17,57.19 42.37,114.3 67.66,169.03 29.55,65.63 61.36,127.31 95.78,188.63 55.64,106.86 130.21,217.84 205.66,310.78 12.3,15.16 21.24,26.66 33.48,41.84l34.48 39.82c19.13,22.74 38.77,45.57 58.92,68.06l11.44 13.21 5.17 5.11c23.86,26.03 48.4,51.47 73.7,75.61 20.48,19.59 40.55,38.31 60.29,56.31 39.28,37.62 66.88,61.56 109.6,94.91 45.07,36.84 89.82,70.68 136.08,102.89l16.75 12.57c57.54,43.2 120.61,77.48 182.41,114.66l97.65 52.99c22.61,11.47 45.1,22.38 67.63,32.85 75.18,36.72 151.96,67.58 230.45,94.05l16.65 6.06c34.43,12.44 78.65,26.62 114.33,36.3 40.86,11.07 78.15,21.72 120.16,30.46 101.42,21.11 213.33,44.53 322.9,53.69 175.7,14.71 317.45,14.77 466.6,-0.41 66.19,-6.1 132.1,-15.64 197.68,-27.72 32.25,-5.59 65.47,-11.79 100.01,-18.6 121.27,-23.95 237.05,-60.35 350.14,-105.91 12.02,-4.85 23.88,-9.7 35.69,-14.63 56.51,-21.97 113,-46.99 166.45,-75.92 24.74,-12.32 49.2,-25 73.5,-38.1l32.51 -16.79c46.32,-25.97 91.59,-53.33 135.82,-82 18.94,-12.02 37.99,-24.38 57.17,-37.14l88.04 -62.59c14.87,-12.34 26.81,-20.69 42.67,-32.63l84.25 -70.56c9.36,-7.27 11.34,-10.75 19.77,-17.91 89.7,-75.84 171.11,-160.79 246.91,-251l21.88 -26.19c10.75,-12.82 21.4,-25.75 31.93,-38.81 66.75,-82.68 138.12,-188.85 198.01,-292.02l0.8 -1.25c38.43,-64.08 74.69,-132.14 103.5,-201.95l46.07 -104.56c27.68,-69.23 52.1,-139.23 73.26,-209.99 9.5,-30.52 18.36,-61.18 26.57,-92l25.37 -106.85c23.77,-108.59 36.4,-216.15 45.64,-326.23 3.16,-37.54 4.79,-70.68 6.1,-107.74l-0.25 -8.68c0.93,-29.1 1.43,-58.29 1.43,-87.58 0,-60.1 -3.56,-127.01 -9.96,-195.11l-0.87 -28.97c-7.57,-69.43 -16.85,-139.47 -31.32,-207.9l-5.9 -25.04c-5.41,-26.63 -11.17,-52.14 -17.21,-76.05l-8.03 -31.19 -18.06 -76.72c-9.38,-37.32 -20.57,-67.03 -31.91,-103.71 -18.5,-59.69 -42.82,-116.52 -66.71,-173.69l-10.87 -26.15c-7.81,-18.94 -15.46,-38.01 -22.73,-57.25 -17.41,-46.06 -53.53,-107.54 -77.18,-152.42 -17.8,-33.82 -37.85,-67.56 -58.87,-100.85 -63.85,-101.04 -133.95,-205.96 -214.87,-298.42 -29.38,-33.6 -59.55,-65.95 -88.9,-97.62 -66.72,-72.09 -135.24,-136.13 -206.79,-195.47l-48.94 -39.5c-34.4,-27.07 -69.55,-53.24 -105.54,-78.89l-5.88 -4.57c-18.97,-14.29 -36.66,-25.89 -54.92,-37.71 -30.6,-20.81 -61.86,-41.37 -93.81,-61.92 -167.95,-108.02 -414.6,-210.05 -608.1,-261.5l-3.98 -1.05c-61.95,-17.83 -125.02,-33.36 -188.27,-44.39 -15.68,-2.75 -31.32,-5.31 -46.92,-7.73l-28.93 -5.45c-17.64,-3.28 -32.82,-4.33 -51.38,-7.55 -21.74,-3.79 -33.82,-4.31 -54.29,-6.79 -38.91,-4.69 -69.35,-6.96 -108.18,-9.86 -104.08,-7.81 -211.68,-11.86 -315.48,-1.01l-106.25 8.22c-33.84,3.62 -70.21,5.43 -102.99,11.03l-0.36 0.08c-190.74,23.63 -428.67,93.85 -604.27,170.45l-7.59 3.28c-173.67,75.85 -340.1,168.25 -492.53,283.18 -58.12,42.16 -115.05,87.13 -166.78,136.23 -55.36,48.23 -108.83,98.68 -158.8,152.93 -3.8,4.01 -7.5,8.02 -11.05,12.08l-0.72 0.85c-17.31,19.24 -34.2,38.93 -50.55,59.2l-2.12 2.66 -24.27 30.04 -55.79 66.67 -21.78 29.43 -7.02 8.7c-8.14,10.99 -15.93,21.98 -23.19,32.89 -66.42,92.56 -129.02,187.93 -181.79,289.34 -97.23,186.78 -174.71,383.86 -219.95,591.8 -29.63,136.18 -54.67,273.7 -59.49,414.19 -1.41,31.12 -2.09,61.84 -2.01,91.7 0.06,19.51 -0.22,34.1 -0.22,53.59l1.37 39.74zm3340.07 1681.44c10.69,-6.75 18.12,-12.85 20.13,-17.58 14.14,-33.39 -44.18,-78.37 -66.39,-174.67 -10.87,-47.03 -17.19,-74.09 -14.63,-119.38 13.22,-8.94 31.02,-22.67 47.63,-31.06 9.34,-5.66 18.26,-10.79 24.72,-14.24 1.29,0.41 8.09,7.15 18.48,18.04 49.78,27.22 119.17,89.85 142.02,126.4 12.65,20.24 35.57,70.81 66.21,63.72 8.98,-2.09 70.88,-50.25 83,-60.19 27.99,-22.97 66.82,-42.5 54.7,-73 -13.81,-34.72 -56.19,-43.42 -112.71,-163.42 -13.37,-28.45 -18.83,-61.54 -30.97,-85.8l56.67 -56.19c70.82,20.84 151.39,51.62 203.37,108.73 26.87,29.49 37.22,36.68 68.42,41.09 25.59,-26.29 105.47,-115.73 112.41,-143.76 3.39,-32.85 -73.05,-63.69 -114,-107.05 -36.66,-38.84 -63.05,-81.55 -86.5,-124.61l41.47 -67.28c55.32,5.43 113.42,9.3 176.53,35.55 31.5,13.11 62.81,42.26 91.53,49.72 15.65,4.07 26.05,0.41 34.11,-7.73l0.56 -2.57c4.15,-6.71 14.07,-24.04 25.42,-45.26 1.27,-2.7 2.58,-5.41 3.97,-8.09 4.17,-8.11 8.19,-15.64 12,-22.69 12.48,-24.82 24.36,-50.61 30.5,-69.39 1.63,-22.63 -16.93,-37.18 -72.6,-55.62 -57.07,-18.9 -134.67,-84.97 -172.3,-134.07 0.18,-2.66 0.83,-6.57 1.85,-11.22l-0.8 -1.1c6.58,-21.48 14.23,-56.05 28.26,-71.57 46.99,-18.3 167.37,-14.07 215.2,2.46 22.57,7.81 72.15,32.77 91.54,8.01 5.68,-7.27 23.59,-83.63 26.79,-98.97 2.64,-12.72 6.63,-25.96 9.36,-38.45 1.31,-10 1.82,-18.74 1.19,-25.24 -19.56,-24.34 -44.79,-27.06 -68,-28.24 -23.69,-1.19 -42.8,-4.65 -69.95,-14.28 -43.79,-15.56 -103.5,-47.81 -144.18,-79.74l1.1 -8.37 -1.16 -0.54 8.81 -79.3c68.19,-28.26 150.22,-54.92 226.54,-43.14 39.33,6.06 51.94,5.17 78.85,-10.87l0.32 -1.39c0.93,-10.41 2.02,-26.81 2.9,-45.6l1.03 -28.32c0.84,-31.79 0.66,-65.45 -2.22,-87.53 -0.46,-2.24 -1,-4.23 -1.59,-5.92 -19.93,-29.71 -98.09,-5.76 -151.06,-13.17 -37.36,-5.19 -118.27,-22.4 -154.44,-48.57l-3.65 -42.26 -5.43 -42.57c46.46,-30.52 94.11,-64 159.7,-83.22 32.75,-9.57 75.41,-6.55 102.46,-18.79 21.14,-9.56 23.92,-24.68 20.88,-43.44l-2.12 -10.51c-2.61,-11.07 -6.28,-23.09 -8.91,-35.81 -5.86,-28.33 -9.28,-51.46 -13.51,-69.19 -4.53,-13.39 -9.76,-24.08 -15.52,-27.54 -37.95,-22.75 -92.73,45.23 -270.99,20.92 -24.72,-3.37 -30.17,0 -38.83,-23.8 -8.67,-16.53 -21.56,-48.86 -21.96,-61.42 -0.99,-31.14 126.66,-119.44 155.87,-132.5 23.38,-10.47 47.53,-11.34 69.66,-26.57 29.79,-20.5 25.48,-27.4 10.4,-61.52 -11.33,-25.57 -33.03,-76.42 -52.11,-107.83 -6.99,-7.99 -15.28,-13.12 -25.65,-12.7 -34.63,1.39 -68.75,48.84 -182.65,73.74 -14.96,3.28 -80.83,10.51 -95.12,9.06 -2.23,-2.34 -4.89,-5.4 -7.77,-8.94l-0.34 0 -1.01 -1.71c-8.37,-10.55 -18.18,-24.82 -24.3,-37.75 -5.41,-8.63 -10.57,-17.43 -14.89,-26.45 10.22,-29.59 50.59,-82.88 68.46,-104.8 32.21,-39.5 43.26,-47.89 93.23,-78.39 57.65,-35.17 41.27,-51.98 7.14,-96.77 -11.37,-14.9 -39.96,-54.74 -61.78,-78.09 -4.37,-3.86 -7.89,-6.32 -10.24,-6.92 -46.1,-11.62 -73.3,95.4 -269.5,145 -4.16,-2.84 -8.59,-6.2 -13.08,-9.94l-1.07 0.08 -5.41 -5.62c-9.22,-8.21 -18.26,-17.53 -25.43,-26.47l-18.2 -18.96c4.11,-65.75 58.5,-161.52 101.16,-202.99 21.52,-20.91 56.47,-53.46 36.86,-79.71 -1.85,-1.72 -3.83,-3.51 -6.04,-5.32 -15.14,-12.44 -29.95,-25.42 -45.25,-37.64 -111.65,-89.43 -78.35,-57.8 -152.92,31.26 -32.73,39.05 -112.97,102.3 -151.99,114.1 -13.71,-2.19 -39.66,-17.63 -55.98,-30.9 -8.01,-5.11 -15.66,-10.27 -22.05,-15.42 2.94,-73.62 18.26,-155.63 51.12,-209.48 34.86,-57.13 44.57,-77.61 22.46,-95.87 -12.04,-6.92 -27.09,-12.6 -41.12,-19.85 -10.76,-5.57 -20.56,-10.91 -29.48,-15.8l-9.58 -4.27c-13,-5.81 -28.36,-15.01 -43.4,-21.25 -28.35,-7.98 -44.13,7.12 -65.67,70.11 -17.61,51.5 -89.3,145.49 -136.71,174.44 -10.39,-1.79 -22.44,-6.32 -34.06,-10.73 -21.78,-6 -46.87,-16.05 -50.97,-27.8 -5.92,-17.1 -9.68,-85.14 -9.79,-106.09 -0.58,-91.32 45.88,-159.2 28.45,-188.29 -2.3,-3.86 -13.23,-9 -28.65,-14.45 -25.64,-7.37 -54.75,-12.55 -71.8,-15.89 -47.98,-9.46 -78.86,-32.71 -93.23,34.83 -10.57,49.84 -0.42,58.66 -25.61,115.61 -15.4,34.83 -44.25,92.68 -72.35,121.03l-39.98 -4.33c-5.07,-0.4 -10.12,-0.96 -15.08,-1.65l-19.04 -2.07 -1.09 -1.9c-4.53,-1.2 -8.67,-2.57 -12.2,-4.08 -22.89,-54.84 -44.39,-115.74 -46.38,-185.25 -1.45,-50.51 26.11,-102.67 -15.28,-116.19 -14.61,-1.9 -35.07,-2.42 -63.57,-2.62 -128.98,-0.93 -115.53,-1.97 -107.3,102.2 3.68,46.53 -17.43,150.75 -47.71,204.13l-72.55 11.08 -3.42 -3.31c-4.55,-0.1 -8.62,-0.42 -11.88,-0.98 -25.65,-22.95 -70.62,-111.51 -83.97,-158.94 -9.1,-32.29 -7.65,-77.32 -19.1,-102.26 -7.35,-15.99 -18.79,-20.9 -32.55,-20.8 -24.97,2.44 -58.49,14.03 -100.62,23.88 -109.33,25.58 -32.39,70.78 -25.45,175.8 2.3,34.53 0.21,71.57 -5.85,107.78 -3.55,21.42 0.72,37.14 -22.51,46.47 -19.71,7.91 -37,10.44 -54.49,20.51l-4.78 -3.67c-23.69,3.95 -25.22,-11.99 -57.59,-42.17 -31.73,-29.59 -62.27,-74.52 -80.67,-115.99 -22.74,-51.2 -6.48,-44.92 -44.69,-87.43 -2.94,0.02 -6.18,0.38 -9.64,1 -4.81,2 -9.96,4.69 -15.86,7.23 -33.4,14.33 -65.87,29.71 -99.33,46.48 -45.33,22.69 -48.13,37.87 -18.54,84.89 48.7,77.35 52.18,118.48 62.08,201.6 2.72,22.58 10.76,27.62 -11.05,41.35 -16.65,10.5 -34.44,21.96 -50.42,30.07l-1.86 -0.54 -7.67 4.93c-46.32,-17.55 -127.75,-81.37 -156.29,-118.55 -50.41,-65.69 -51.08,-97.68 -89.49,-76.86 -8.35,6.1 -17.41,14.01 -27.98,22.18 -23.45,18.14 -80.48,58.28 -93.81,81.9 4.01,26.85 13.81,39.59 39.3,63.95 47.99,45.78 100.55,145.99 105.42,204.57l-54.51 55.77 -0.32 -0.12 -2.56 2.83c-62.1,-4.18 -176.91,-67.33 -202.6,-98.74 -32.01,-39.19 -53.61,-50.41 -73.07,-43.82 -7.63,6.02 -15.71,14.89 -25.37,25.94 -26.77,30.62 -71.14,80.99 -82.58,112.64 39.72,62.61 130.21,72.69 203.43,228.06l-41.29 65.23 -0.93 0.04c-0.78,1.73 -1.53,3.46 -2.23,5.27 -171.32,5.28 -225.67,-77.38 -279.06,-84.07 -9.5,-1.2 -15.86,0.06 -20.57,3.04 -24.48,37.73 -78.27,141.42 -71.53,159.62 11.22,30.28 91.66,47.41 125.42,69.47 31.5,20.6 104.66,77.53 118.19,109.11 -0.22,15.77 -11.38,46.81 -22.51,66.86 -1.47,3.68 -2.96,7.25 -4.49,10.65 -33.64,14.51 -89.7,14.31 -131.65,12.9 -56.19,-1.89 -72.42,-11.73 -121.33,-26.87 -29.92,-9.26 -45.44,-7.23 -54.62,2.41 -5.35,10.43 -9.46,25.69 -15.24,45.96l-5.47 19.57c-3.13,12.6 -7.55,29.51 -11.48,46.87 -30.08,146.23 75.09,13.44 277.45,179.64 -9.87,37.51 -5.4,55.87 -10.27,68.15l-1.55 16.26c-75.87,26.94 -142.05,55.87 -231,41.51 -57.82,-9.32 -71.19,0.85 -75.31,34.89l-0.17 6.93c-1.26,38.18 1.62,97.49 -0.62,131.79 0.38,3.18 0.81,6.26 1.31,9.2 38.63,35.15 95.62,6.59 143.29,12.26 40.34,4.83 109.57,21.3 150.44,41.43 21.58,10.63 16.73,43.16 18.92,63.66 0.31,2.96 0.25,5.75 -0.12,8.37l2.08 18.1c-28.81,25.34 -87.92,56.67 -128.98,73.16 -21.99,8.83 -53.15,18.37 -79.96,19.86 -43.97,2.48 -42.24,3.97 -75.03,24.14 -0.42,9.48 3.22,36.16 8.94,66.39 3.24,15.4 6.92,30.78 11.09,46.95 18.9,73.2 17.63,81.57 103.81,49.66 49.1,-18.18 94.04,-17.25 144.3,-14.09 23.94,1.51 50.93,5.66 75.37,10.35 2.96,4.19 6.28,11.23 9.53,19.48 9.48,18.14 18.5,48.62 19.91,66.94 -82.06,62.93 -70.22,92.3 -194.25,135.48 -66.23,23.05 -58.22,36.54 -33.5,94.84 6.28,14.8 12.02,27.86 17.34,39.34 5.71,11.07 10.81,20.71 14.41,27.53 37.34,71.09 50.83,32.07 118.07,-2.41 20.17,-10.33 44.97,-19.87 65.81,-24.9 27.48,-6.59 111.26,-28.43 134.03,-16.01 1.05,0.57 2.54,2.1 4.35,4.31l3.24 0c2.76,6.16 5.53,11.6 8.17,16.43 3.6,5.65 7.35,11.85 10.91,17.81 20.82,30.66 28.79,28.79 -15.54,91.02 -87.15,122.39 -105.28,95.03 -150.92,142.04 -27.18,27.98 -13.33,38.71 5.07,63.17 19.57,25.95 51.11,61.96 72.29,89.42 54.36,48.9 47.69,-46.28 227.64,-113.72 19.73,-7.39 38.51,-10.85 54.38,-18.74l10.39 10.09c16.74,5.05 29.73,25.5 41.38,37.16 18.2,18.22 6.75,43.24 -6.22,73.92 -60.31,142.61 -105.54,147.66 -122.35,183.29 -16.69,35.39 12.72,47.59 30.19,62.73 17.88,15.52 35.92,29.69 55.93,44.57 17.33,12.88 30.05,22.65 40.48,28.24 35.77,7.07 63.74,-74.74 113,-117.86 28.06,-24.6 94.83,-78.27 124.65,-80.57l6.5 4.15c17.84,7.07 51.36,30 63.43,40.26 -1.93,56.23 -10.53,111.91 -27.88,161.01 -14.75,41.75 -65.73,96.21 -54.17,133.59 16.61,20.51 96.59,54.19 125.88,66.85 12.42,5.36 22.36,8.72 30.42,10.27 20.59,-13.31 30.58,-28.91 38.55,-55.5 23.79,-79.26 84.08,-138.12 141.52,-193.82 5.57,2.35 10.71,4.39 15.48,6.22 16.31,3.4 56.85,19.24 66.95,23.59 8.1,73.96 21.2,157.39 -8.93,230.56 -33.78,82.04 -3.61,80.28 48.89,93.37 21.26,5.31 42.7,10.59 64.77,15.16 22.46,4.63 38.39,6.7 49.88,6.1 45.5,-52.66 2.22,-134.54 119.02,-280 2.23,-0.12 4.81,-0.12 7.63,-0.06l0.1 -0.19 3.74 0.33c8.86,0.42 19.57,1.47 30.14,2.77l41.02 3.75c5.44,13.41 10.09,7.85 28.67,66.17 8.35,26.17 13.61,45.03 18.48,73.46 9.46,55.36 -15.16,137.47 13.79,166.1 29.15,5.88 157.97,8.11 179.15,-1.43 32.45,-16.83 2.77,-98.18 14.01,-162.74 6.4,-36.76 24.64,-120.46 46.4,-141l72.73 -7.99c18.32,17.9 46.16,71.31 59.15,96.73 91.85,179.65 -52.4,227.46 240.1,149.03 9.46,-25.47 7.89,-44.57 -3.28,-71.91 -31.27,-76.62 -21.34,-160.28 -11.62,-239.7 89.16,-25.75 59.71,-41.55 121.61,20.9 28.19,28.46 62.57,73.17 80,112.47 19.71,44.47 21.18,112.37 86.73,79.32 26.29,-13.23 70.12,-31.11 102.2,-47.55z"/>
   <path class="fil3" d="M4540.7 7752.59c7.01,7.81 39.62,37.3 45.24,40.68l92.14 52.06c41.31,22.11 31.98,-3.2 86.32,-30.31 0.48,-63.9 -23.05,-107.3 -34.35,-160.27 -15.44,-43.1 -53.97,-97.05 -55.07,-146.05l55.08 -52.58c62.96,8.64 113.61,46.48 162.73,69.07 41.55,3.82 84.17,23.11 134.44,25.2 11.09,-20.39 29.37,-41.33 43.5,-62.62 -6.72,-22.85 -28.97,-58.24 -41.15,-77.63 -7.06,-11.21 -15.44,-25.34 -23.21,-35.37 -67.09,-86.5 -144.88,-89.62 -111.06,-157.02 9.62,-19.17 26.63,-65 46.4,-70.4 33.38,-9.14 63.52,11.96 89.91,18.92 52.36,13.83 153.82,10.11 207.02,-6.86 7.41,-19.65 22.49,-57.13 21.89,-76.94 -41.15,-36.18 -71.17,-71.87 -128.72,-105.17 -52.82,-30.54 -133.29,-21.48 -119.9,-98.92 6.64,-38.29 1.99,-71.46 34.91,-82.21 75.37,-24.58 43.02,36.11 272.81,-72.62l0 -72.61c-12.56,-27.06 -131.74,-65.24 -170.59,-71.79 -109.03,-18.38 -124.11,36.22 -139.33,-104.42 -4.34,-40.26 31.15,-50.08 62.53,-59.2 36.08,-10.51 55.18,-21.52 82.5,-38.81 26.23,-16.55 46.32,-33.89 66.59,-54.66 10.15,-10.41 23.49,-21 32.23,-30.92 12.3,-13.95 5.28,-21.44 -1.11,-41.21 -16.66,-51.37 -8.09,-44.29 -70.03,-51.53 -148.19,-17.26 -138.84,15.29 -213.71,23.29 -48.07,5.17 -48.58,-22.73 -65.89,-57.16 -32.73,-65.26 -9.3,-73.74 41.83,-106.71 46.62,-30.04 106.43,-119.6 126.16,-176.77 -12.3,-23.49 -32.85,-42.19 -42.82,-63.47 -170.14,10.81 -206.72,75.57 -256.08,97.01 -39.54,17.21 -53.77,-9.24 -71.93,-28.45 -17.82,-18.9 -49.52,-33.72 -31.71,-75.45 26.76,-62.67 76.7,-61.9 96.69,-251.82 -16.47,-16.75 -54.35,-52.06 -79.07,-40.6 -49.26,22.81 -120.45,66.21 -152.31,107.54 -64.7,83.93 -47.88,88.21 -149.56,36.54 -39.25,-19.93 -21.24,-60.44 -9,-94.62 20.66,-57.79 16.55,-163.24 -0.32,-222.25 -14.05,-7.85 -32.29,-12.54 -49.1,-18.23 -26.43,-8.94 -25.89,-8.34 -41.37,7.36 -19.66,19.93 -40.28,43.12 -58.38,67.32 -70.72,94.58 -60.07,150.28 -88.89,166.51 -14.48,8.19 -98.16,-3.43 -111.27,-12.26 -27.94,-18.81 -15.76,-72.05 -19.34,-106.05 -7.39,-70.18 -40.25,-134.86 -67.75,-187.26l-78.08 0c-108.57,191.68 -44.49,273.74 -89.1,295.34 -16.59,8.03 -94.04,18.86 -109.5,10.55 -22.9,-12.3 -29.06,-60.05 -41.1,-88.8 -24.16,-57.72 -66.46,-103.9 -108.71,-146.73 -20.78,-21.04 -39.88,-6.27 -67.02,3.32 -13.57,4.79 -11.31,2.07 -19.06,11.07 -22.04,24.98 -17.27,169.42 -7.57,204.79 7.45,27.18 30.84,64.58 15.26,95.1 -7.63,14.92 -52.38,31.85 -70.92,41.83 -57.96,31.15 -86.59,-58.54 -125.42,-89.62 -27.64,-22.14 -100.87,-78.57 -143.23,-87.33 -19.81,14.58 -45.56,29.37 -60.74,46.48 19.35,189.01 71.67,190.06 98.3,255.55 15.93,39.21 -16.89,54.73 -35.61,72.79 -20.19,19.49 -29.49,45.56 -72.13,26.41 -56.48,-25.36 -58.7,-77.5 -253.57,-96.41 -10.4,21.26 -28.14,40.67 -41.95,63.84 21.7,62.08 81.09,141.32 119.26,171.17 22.3,17.42 70.53,40.79 64.9,74.11 -2.38,14.19 -40.14,84.51 -48.52,92.88 -36.47,19.71 -116.8,-53.13 -304.62,-10.91 -14.84,43.68 -32.45,65.04 -5.62,91.66 22.91,22.74 40.08,38.93 68.67,61.15 76.82,59.61 154.2,62.03 166.08,87.69 1.81,19.95 -7.89,99.61 -18.6,112.3 -19.89,23.59 -76.16,12.76 -109.01,16.36 -42.21,4.63 -169.8,46.97 -182.2,73.48l0 66.94c15.36,27.47 140.23,68 182.5,72.97 34.47,4.03 92.4,-9 110.76,19.19 9.4,14.45 18.26,90.83 16.37,109.41 -11.13,22.75 -92.97,37.68 -139.53,68.7 -38.47,25.67 -88.7,67.81 -111.64,97.94 13.38,75.86 22.48,75.77 60.95,81.57 153.82,23.23 197.79,-25.52 248.68,-21.78 27.26,2.01 26.03,11.72 36.32,34.12 29.95,65.07 51.75,78.65 -21.7,125.4 -58.34,37.14 -90.13,98.26 -122.6,157.64 -20.96,38.31 14.98,55.28 32.01,87.74 64.86,-5.06 136.08,-24.22 185.66,-50.09 27.76,-14.49 42.22,-35.63 69.92,-47.17 40.42,-16.89 52.46,10.79 71.91,29.98 17.57,17.33 50.18,32.51 31.54,73.42 -24.56,53.99 -83.5,84.43 -96.32,253.04 11.57,11.15 24.74,18.89 38.81,30.1 15.12,12.04 20.29,19.65 40.04,9.52 263.19,-135.12 132.52,-230.22 302.91,-143.25 37.69,19.26 21.62,58.84 8.19,94.17 -15.34,40.38 -21.01,189.8 2.18,221.4 10.61,9.95 31.93,13.81 48.27,19.37 24.78,8.45 25.21,6.1 39.6,-8.36 43.7,-43.94 85.8,-89.9 109.47,-150.19 11.94,-30.36 16.19,-72.29 40.59,-84.9 11.91,-6.14 94.45,5.2 108.06,12.56 43.96,23.72 -15.94,138 89.58,295.02l76.66 -0.2c106.55,-162.72 42.52,-273.78 92.46,-296.18 17.46,-7.85 91.26,-18.38 104.74,-10.96 22.71,12.49 30.28,57.44 41.66,88.12 10.93,29.43 32.18,58.62 49.11,80.68 15.4,20.01 44.11,53.13 60.94,69.01 15.42,14.58 16.87,12.14 41.03,3.83 14.71,-5.06 32.77,-9 46.36,-16.35 10.53,-33.58 17.15,-110.78 14.39,-148.1 -1.85,-24.86 -4.32,-49.55 -12.16,-71.39 -24.47,-68.18 -29.39,-79.43 26.28,-107.74 68.6,-34.89 81,-41.63 137.91,56.47zm-738.85 -1948.4c-495.86,62.63 -831.39,491.88 -781.92,974.12 46.82,456.37 460.63,842.12 978.97,785.09 179.48,-19.73 334.94,-92.34 463.23,-197.19 310.52,-253.87 428.51,-726.89 210.67,-1109.76 -34.32,-60.33 -70.88,-116.01 -114.2,-162.09 -111.43,-118.49 -202.24,-183.76 -365.28,-245.54 -105.42,-39.92 -270.34,-59.91 -391.47,-44.63z"/>
   <path class="fil4" d="M1542.56 7593.9l-89.46 -160.14c-231.22,-429.08 -317.51,-971.22 -243.69,-1457.03 156.43,-1029.36 968.56,-1845.38 1993.67,-1997.72 309.71,-46.02 614.44,-32.29 910.54,37.09 179.57,42.07 384.88,116.94 545.74,202.97l163.24 90.74c-4.57,-5.48 -1.42,-2.56 -7.38,-7.61l-30.76 -20.02c-466.32,-287.73 -1029.82,-401.5 -1580.16,-323.53 -431.12,61.09 -819.35,238.5 -1142.37,493.94 -61.26,48.45 -84.73,74.07 -134,116.89 -24.64,21.4 -44.45,39.51 -67.38,62.43 -52.5,52.49 -130,140.97 -176.94,199.65 -457.71,571.97 -627.17,1331.41 -448.08,2057.91 59.24,240.31 160.02,476.96 290.63,684.24l16.4 20.19z"/>
   <path class="fil4" d="M2509.85 8030.25c5.46,6.76 0.47,1.95 7.59,7.9 2.13,1.78 5.59,4.18 7.92,5.7l49.59 29.5c573.87,330.24 1336.94,347.91 1917.7,31.66 194.46,-105.89 330.62,-205.44 482.03,-354.78 249.61,-246.16 487.31,-616.38 565.88,-1107.83 67.55,-422.55 -6.25,-849.99 -196.84,-1224.59 -8.8,-17.31 -58.87,-112.83 -72.78,-128.97l-7.93 -7.63c5.85,17.61 26.41,50.91 36.3,67.83 31.04,53.17 78.82,156.22 101.28,212.48 135.09,338.27 179.36,707.76 120.62,1074.5 -53.44,333.6 -182.91,619.23 -369.85,872.44 -73.94,100.15 -134.36,161.35 -216.38,248.03l-82.27 72.69c-266.15,236.51 -626.82,402.62 -989.92,461.57 -413.78,67.19 -844.13,-1.1 -1214.03,-186.56l-138.91 -73.94z"/>
  </g>
 </g>
</svg>
