<svg xmlns="http://www.w3.org/2000/svg" viewBox="0 0 24 24" role="img" aria-label="Babas">
  <!-- Baby head with bonnet curl + pacifier -->
  <path fill="#94A3B8" d="M12 2.6a5.1 5.1 0 0 1 5 4.1 2.4 2.4 0 0 1-.2 4.2 5.1 5.1 0 0 1-9.6 0 2.4 2.4 0 0 1-.2-4.2A5.1 5.1 0 0 1 12 2.6z"/>
  <path fill="#CBD5E1" d="M12 4a3.7 3.7 0 0 1 3.66 3.1 4 4 0 0 1-7.32 0A3.7 3.7 0 0 1 12 4z"/>
  <circle cx="10" cy="9.4" r="0.85" fill="#1E293B"/>
  <circle cx="14" cy="9.4" r="0.85" fill="#1E293B"/>
  <path fill="none" stroke="#475569" stroke-width="1" stroke-linecap="round" d="M10.8 11.6a1.6 1.6 0 0 0 2.4 0"/>
  <circle cx="7.7" cy="10.4" r="0.9" fill="#0EA5E9" opacity="0.5"/>
  <circle cx="16.3" cy="10.4" r="0.9" fill="#0EA5E9" opacity="0.5"/>
  <circle cx="12" cy="15.4" r="2.4" fill="#0EA5E9"/>
  <circle cx="12" cy="15.4" r="1.1" fill="#F0F9FF"/>
  <rect x="11.4" y="17.4" width="1.2" height="2.4" rx="0.6" fill="#475569"/>
  <rect x="10.2" y="19.4" width="3.6" height="1.4" rx="0.7" fill="#64748B"/>
</svg>
