<svg xmlns="http://www.w3.org/2000/svg" viewBox="0 0 24 24" role="img" aria-label="Hardeware">
  <!-- Wrench (diagonal) -->
  <path fill="#94A3B8" stroke="#475569" stroke-width="0.45" stroke-linejoin="round" d="M16.6 3.4a3.6 3.6 0 0 0-4.1 4.55L3.9 16.55a1.6 1.6 0 0 0 2.26 2.26l8.6-8.6a3.6 3.6 0 0 0 4.55-4.1l-2.2 2.2-2.06-.55-.55-2.06z"/>
  <!-- Hammer (diagonal, crossing) -->
  <path fill="#64748B" stroke="#475569" stroke-width="0.45" stroke-linejoin="round" d="m13.5 16.2 4.2-4.2 1.5 1.5 1.4-1.4-4.6-4.6-1.4 1.4 1.5 1.5-4.2 4.2z"/>
  <path fill="#0EA5E9" d="m6.3 19.9 3.7-3.7 1.4 1.4-3.7 3.7a.99.99 0 0 1-1.4-1.4z"/>
</svg>
