<svg xmlns="http://www.w3.org/2000/svg" viewBox="0 0 512 512" width="512" height="512" role="img" aria-label="Bitcoin in Orania">
  <defs>
    <style>
      .str { fill: none; stroke: #fff; stroke-width: 5; stroke-linecap: round; stroke-opacity: 0.2; }
    </style>
  </defs>
  <rect width="512" height="512" rx="110" fill="#F7931A"/>
  <path class="str" d="M48 192h424M64 88v360M200 40v430M360 64v360M96 308h320"/>
  <path class="str" d="M120 40q88 200-24 300" style="stroke-opacity:0.14" stroke-width="4"/>
  <g transform="translate(256 292)">
    <path
      fill="#fff"
      d="M0-142c-54 0-98 44-98 98 0 58 50 125 98 220 48-95 98-162 98-220 0-54-44-98-98-98z"
    />
    <circle cy="-90" r="40" fill="#F7931A"/>
    <!-- Bitcoin mark from Tabler Icons (MIT) -->
    <g
      transform="translate(0 -90) scale(1.55) translate(-12 -12)"
      fill="none"
      stroke="#fff"
      stroke-width="2.35"
      stroke-linecap="round"
      stroke-linejoin="round"
      aria-hidden="true"
    >
      <path d="M6 6h8a3 3 0 0 1 0 6a3 3 0 0 1 0 6h-8" />
      <path d="M8 6v12" />
      <path d="M8 12h6" />
      <path d="M9 3v3" />
      <path d="M13 3v3" />
      <path d="M9 18v3" />
      <path d="M13 18v3" />
    </g>
  </g>
</svg>
