<svg xmlns="http://www.w3.org/2000/svg" viewBox="0 0 24 24" role="img" aria-label="Karre">
  <!-- Side-on car silhouette -->
  <path fill="#475569" d="M2.5 14.2 4 10.1a2.1 2.1 0 0 1 1.62-1.35l3.05-.5a3 3 0 0 1 1.55.16l3.9 1.5a3 3 0 0 0 .82.2l3.3.32A2.2 2.2 0 0 1 21.5 12.6v1.6a1.4 1.4 0 0 1-1.4 1.4H3.9a1.4 1.4 0 0 1-1.4-1.4z"/>
  <path fill="#0EA5E9" d="M6.05 9.55 8.7 9.2a2 2 0 0 1 1.05.12l2.7 1.05a.5.5 0 0 1-.18.97H6.2a.55.55 0 0 1-.5-.78z"/>
  <rect x="2.4" y="14" width="19.2" height="1.7" rx="0.85" fill="#1E293B"/>
  <circle cx="7" cy="16.4" r="2.6" fill="#1E293B"/>
  <circle cx="7" cy="16.4" r="1.1" fill="#CBD5E1"/>
  <circle cx="16.7" cy="16.4" r="2.6" fill="#1E293B"/>
  <circle cx="16.7" cy="16.4" r="1.1" fill="#CBD5E1"/>
</svg>
