<svg xmlns="http://www.w3.org/2000/svg" viewBox="0 0 24 24" role="img" aria-label="Vervoer">
  <!-- Shuttle / minibus -->
  <path fill="#475569" d="M3.2 6.6A1.6 1.6 0 0 1 4.8 5h11.6a2.2 2.2 0 0 1 1.7.8l2.9 3.5a2.2 2.2 0 0 1 .5 1.4v4.1a1.4 1.4 0 0 1-1.4 1.4H4.6a1.4 1.4 0 0 1-1.4-1.4z"/>
  <rect x="5.1" y="7.1" width="3.2" height="3.1" rx="0.5" fill="#0EA5E9"/>
  <rect x="9.1" y="7.1" width="3.2" height="3.1" rx="0.5" fill="#0EA5E9"/>
  <rect x="13.1" y="7.1" width="3" height="3.1" rx="0.5" fill="#0EA5E9"/>
  <path fill="#7DD3FC" d="M16.7 7.1h.2a1 1 0 0 1 .78.38l1.9 2.3a.4.4 0 0 1-.3.66H16.7z"/>
  <rect x="3.2" y="15.4" width="18.2" height="1.6" rx="0.8" fill="#1E293B"/>
  <circle cx="7.4" cy="17.4" r="2.5" fill="#1E293B"/>
  <circle cx="7.4" cy="17.4" r="1.05" fill="#CBD5E1"/>
  <circle cx="16.8" cy="17.4" r="2.5" fill="#1E293B"/>
  <circle cx="16.8" cy="17.4" r="1.05" fill="#CBD5E1"/>
</svg>
